<svg xmlns="http://www.w3.org/2000/svg" id="圖層_2" data-name="圖層 2" viewBox="0 0 40 40"><defs><style>.cls-1{fill:#ff8674;}.cls-2{fill:#fff;}</style></defs><ellipse class="cls-1" cx="20" cy="20" rx="20" ry="20.02"/><path class="cls-2" d="M26.16,17.21A10.61,10.61,0,0,0,26,12a.45.45,0,0,0-.55-.31l-.08,0c-.38.17-.74,1-1.91,1.77-.16.11-.33.2-.5.3a6.44,6.44,0,0,0-5.88,0,5.09,5.09,0,0,1-.5-.3c-1.17-.78-1.53-1.59-1.91-1.77l-.08,0A.45.45,0,0,0,14,12a10.61,10.61,0,0,0-.18,5.22,6.67,6.67,0,1,0,12.32,0Z"/></svg>