<svg xmlns="http://www.w3.org/2000/svg" id="Icons" viewBox="0 0 40 40"><defs><style>.cls-1{fill:none;stroke:#d7af70;stroke-linecap:round;stroke-linejoin:round;stroke-width:1.5px;}.cls-2{fill:#d7af70;}</style></defs><path class="cls-1" d="M25,33.26a11.28,11.28,0,0,0,4.65,1.14c2.94.05,5.32-1.82,5.32-4.07s-2.38-4-5.32-4.07C25,26.1,20.58,28,16.21,30.92A11.62,11.62,0,0,1,8.53,33h0c-2-.19-3.75-1.28-3.51-3.45C5.19,28,6.59,27,8.53,27a4.12,4.12,0,0,1,2.29.67"/><path class="cls-2" d="M35.3,19.66a14.92,14.92,0,0,1-1.38-.92,15.62,15.62,0,0,1-5.75-9.88A4.68,4.68,0,0,0,20.8,5.8C16,9.37,10.73,16,10.61,27.76a3.17,3.17,0,0,0-5.24,2.11C5.2,31.81,6.72,33,8.54,33.35c5.17,1,12.44-6.79,19.36-6.49a.52.52,0,0,0,.37-.89,11,11,0,0,1-3.19-7.38,25.8,25.8,0,0,1,.21-3.25,16.23,16.23,0,0,0,8,5.34c.52.15,1,.27,1.49.37a.76.76,0,0,0,.85-.48A.74.74,0,0,0,35.3,19.66Z"/></svg>