<svg xmlns="http://www.w3.org/2000/svg" id="Icons" viewBox="0 0 40 40"><defs><style>.cls-1{fill:#35bcbc;}.cls-2{fill:none;stroke:#35bcbc;stroke-linecap:round;stroke-linejoin:round;stroke-width:1.5px;}</style></defs><polygon class="cls-1" points="8.78 23.35 7.14 27.48 16.76 31.23 22.79 28.82 8.78 23.35"/><path class="cls-1" d="M27.52,25.81,14.23,12.52a.77.77,0,0,0-.68-.2.72.72,0,0,0-.54.46L9.34,22l15.49,6,2.43-1a.72.72,0,0,0,.46-.54A.77.77,0,0,0,27.52,25.81Z"/><path class="cls-1" d="M6.58,28.87l-1.67,4.2a1.59,1.59,0,0,0,1.46,2.18,1.61,1.61,0,0,0,.6-.12L14.72,32Z"/><line class="cls-2" x1="25.25" y1="14.79" x2="29.31" y2="10.73"/><line class="cls-2" x1="28.91" y1="20.04" x2="34.98" y2="18.74"/><line class="cls-2" x1="20" y1="11.13" x2="21.3" y2="5.06"/></svg>