<svg xmlns="http://www.w3.org/2000/svg" id="Icons" viewBox="0 0 40 40"><defs><style>.cls-1{fill:none;stroke:#ff8674;stroke-linecap:round;stroke-linejoin:round;stroke-width:1.5px;}.cls-2{fill:#ff8674;}</style></defs><path class="cls-1" d="M20.15,23.5V34s4.4-8,13.09-7.18"/><path class="cls-1" d="M16.39,29.88A12.18,12.18,0,0,0,7.06,26.7"/><path class="cls-2" d="M14.08,11.47a7.54,7.54,0,0,1,12,.15,26.84,26.84,0,0,1,4.11-1.39A11.92,11.92,0,0,0,20.08,5,11.88,11.88,0,0,0,9.93,10.3,20.21,20.21,0,0,1,14.08,11.47Z"/><path class="cls-2" d="M15.49,12.12a18.65,18.65,0,0,1,4.61,3.3,22,22,0,0,1,4.59-3.13A6.07,6.07,0,0,0,20,10.08,6,6,0,0,0,15.49,12.12Z"/><path class="cls-2" d="M21.13,16.51a19.68,19.68,0,0,1,4.15,7.72,10.1,10.1,0,0,0,6.36-9.06,9,9,0,0,0-.75-3.58A22.42,22.42,0,0,0,21.13,16.51Z"/><path class="cls-2" d="M9.22,11.69a9.09,9.09,0,0,0-.71,3.48c0,5.6,5.19,10.16,11.57,10.16a12.71,12.71,0,0,0,3.78-.57A17.66,17.66,0,0,0,9.22,11.69Z"/></svg>