<svg xmlns="http://www.w3.org/2000/svg" id="Icons" viewBox="0 0 40 40"><defs><style>.cls-1{fill:none;}.cls-1,.cls-2{stroke:#718096;stroke-linecap:round;stroke-linejoin:round;stroke-width:1.5px;}.cls-2{fill:#718096;}</style></defs><path class="cls-1" d="M35.19,17.59,22.84,26.88,6.73,21c-1.45-.5-2.24-2.61-1.83-4.39h0c.41-1.78,1.94-2.82,3.39-2.31l14.55,5.34h0l12.37-9.3"/><path class="cls-1" d="M35.19,24.84,22.84,34.13,6.73,28.24c-1.45-.5-2.24-2.61-1.83-4.39h0c.41-1.78,1.94-2.82,3.39-2.31l14.55,5.34h0l12.37-9.3"/><polygon class="cls-2" points="20 5.03 35.21 10.33 22.84 19.63 7.36 13.8 6.4 14.47 20 5.03"/></svg>