<svg id="logo" data-name="logo" xmlns="http://www.w3.org/2000/svg" viewBox="0 0 64 64" class="css-14r4nkb" width="4rem" height="4rem"> <defs> <style> .css-14r4nkb { width: 4rem; height: 4rem; } .css-1qssie3 { fill: #ff8674; } .css-a1sw8b { fill: #2d3748; } </style> </defs> <path d="M10.61,38.5l-.07-.08a1.33,1.33,0,0,0-2.1.28L.18,53a1.34,1.34,0,0,0,1.15,2H17.85a1.33,1.33,0,0,0,1.06-.53,1.31,1.31,0,0,0,.23-1.15A33.42,33.42,0,0,0,10.61,38.5Z" class="css-1qssie3" ></path> <path d="M34.87,48.2l-7.06-4.68,1.79-5a1.89,1.89,0,0,0,.1-.55,1.34,1.34,0,0,0-.89-1.21l-7.4-3,1.33-6.08a1.34,1.34,0,0,0-2.61-.57L17.87,37.42a40.77,40.77,0,0,0-5-5.59,1.33,1.33,0,1,0-1.81,2A45.18,45.18,0,0,1,23.39,55.09a1.34,1.34,0,0,0,1.29,1,1.24,1.24,0,0,0,.33,0,1.33,1.33,0,0,0,1-1.62c-.28-1.11-.6-2.22-1-3.32l1.86-5,6.54,4.34a1.3,1.3,0,0,0,.73.22,1.32,1.32,0,0,0,1.11-.6A1.34,1.34,0,0,0,34.87,48.2ZM25,43.55h0l-1.41,3.8a50.2,50.2,0,0,0-3.61-6.9l.89-4.09,5.9,2.43Z" class="css-a1sw8b" ></path> <path d="M59.23,26.06A4.77,4.77,0,1,0,64,30.82,4.76,4.76,0,0,0,59.23,26.06Zm0,6.87a2.11,2.11,0,1,1,2.1-2.11A2.11,2.11,0,0,1,59.23,32.93Z" class="css-a1sw8b" ></path> <path d="M55.13,37.16l-12.6-22a1.34,1.34,0,0,0-2.32,1.33l12.61,22a1.33,1.33,0,1,0,2.31-1.33Z" class="css-a1sw8b" ></path> <path d="M52.45,52.43h0l-15.74,0a1.33,1.33,0,1,0,0,2.66h0l15.73,0a1.33,1.33,0,0,0,0-2.66Z" class="css-1qssie3"></path> <path d="M25.69,8.72h0L17.47,22.14A1.33,1.33,0,0,0,17.92,24a1.32,1.32,0,0,0,1.82-.43h0L28,10.11a1.34,1.34,0,0,0-.44-1.83A1.32,1.32,0,0,0,25.69,8.72Z" class="css-1qssie3" ></path> <path d="M53,15.12a4.77,4.77,0,1,0,4.77,4.77A4.77,4.77,0,0,0,53,15.12ZM53,22a2.1,2.1,0,1,1,2.11-2.1A2.1,2.1,0,0,1,53,22Z" class="css-a1sw8b" ></path> <path d="M45.15,42.92,43.45,40a4.77,4.77,0,1,0-.06,4.74v0a1.32,1.32,0,0,0,.61.16,1.34,1.34,0,0,0,1.15-2Zm-5.84,1.49a2.1,2.1,0,1,1,2.1-2.1A2.1,2.1,0,0,1,39.31,44.41Z" class="css-a1sw8b" ></path> <path d="M38.9,32s-1.66-2.87-1.66-2.85a4.77,4.77,0,1,0-.09,4.66v0a1.38,1.38,0,0,0,.59.14,1.33,1.33,0,0,0,.66-.17A1.34,1.34,0,0,0,38.9,32Zm-5.84,1.5a2.1,2.1,0,1,1,2.1-2.1A2.1,2.1,0,0,1,33.06,33.5Z" class="css-a1sw8b" ></path> <path d="M43,20.9a4.77,4.77,0,1,0,4.77,4.76A4.76,4.76,0,0,0,43,20.9Zm0,6.86a2.1,2.1,0,1,1,2.1-2.1A2.1,2.1,0,0,1,43,27.76Z" class="css-a1sw8b" ></path> <path d="M49.3,31.79a4.77,4.77,0,1,0,4.77,4.76A4.76,4.76,0,0,0,49.3,31.79Zm0,6.87a2.11,2.11,0,1,1,2.1-2.11A2.11,2.11,0,0,1,49.3,38.66Z" class="css-a1sw8b" ></path> </svg>