<svg data-name="member" xmlns="http://www.w3.org/2000/svg" viewBox="0 0 24 24" class="css-16vp28x" width="1.5rem" height="1.5rem"> <defs> <style> .css-16vp28x { font-size: 2rem; color: #2d3748; stroke-width: 1.5; width: 1.5rem; height: 1.5rem; } .css-a1sw8b { fill: #2d3748; } .css-v3htaq { stroke: #2d3748; stroke-width: 1.5; } </style> </defs> <path id="Path_5363" data-name="Path 5363" d="M16,4.47a6.47,6.47,0,0,0-.09-3.27h0A.27.27,0,0,0,15.6,1l0,0c-.23.1-.45.6-1.15,1.07s-1.67.72-1.67.81a.24.24,0,0,0,.14.22h0l2.78,1.51a.3.3,0,0,0,.23,0A.33.33,0,0,0,16,4.47Z" class="css-a1sw8b" ></path> <path id="Path_5368" data-name="Path 5368" d="M7.88,4.47A6.36,6.36,0,0,1,8,1.2H8A.27.27,0,0,1,8.3,1l0,0c.23.1.45.6,1.16,1.07s1.67.72,1.66.81a.25.25,0,0,1-.13.22h0L8.25,4.63a.24.24,0,0,1-.23,0,.25.25,0,0,1-.14-.16Z" class="css-a1sw8b" ></path> <circle fill="none" stroke-linecap="round" stroke-linejoin="round" cx="11.95" cy="6.87" r="3.93" class="css-v3htaq" ></circle> <path fill="none" stroke-linecap="round" stroke-linejoin="round" d="M20.1,16.43c0,2.55-3.63,4.63-8.11,4.63S3.88,19,3.88,16.43A21.25,21.25,0,0,1,12,15.11,21.29,21.29,0,0,1,20.1,16.43Z" class="css-v3htaq" ></path> </svg>